<svg height="512" viewBox="0 0 50 60" width="512" xmlns="http://www.w3.org/2000/svg" xmlns:xlink="http://www.w3.org/1999/xlink"><linearGradient id="linearGradient-1" x1="12.853%" x2="87.147%" y1="18.433%" y2="85.298%"><stop offset="0" stop-color="#d3dff2"/><stop offset=".172" stop-color="#d3dff2"/><stop offset=".2" stop-color="#d3dff2"/><stop offset=".2" stop-color="#dae2f2"/><stop offset=".201" stop-color="#ebeaf2"/><stop offset=".201" stop-color="#f6eff2"/><stop offset=".202" stop-color="#fdf2f2"/><stop offset=".205" stop-color="#fff3f2"/><stop offset=".252" stop-color="#fff3f2"/><stop offset=".26" stop-color="#fff3f2"/><stop offset=".26" stop-color="#d3dff2"/><stop offset=".397" stop-color="#d3dff2"/><stop offset=".42" stop-color="#d3dff2"/><stop offset=".42" stop-color="#dae2f2"/><stop offset=".421" stop-color="#ebeaf2"/><stop offset=".421" stop-color="#f6eff2"/><stop offset=".422" stop-color="#fdf2f2"/><stop offset=".425" stop-color="#fff3f2"/><stop offset=".489" stop-color="#fff3f2"/><stop offset=".5" stop-color="#fff3f2"/><stop offset=".5" stop-color="#f8f0f2"/><stop offset=".5" stop-color="#e7e8f2"/><stop offset=".5" stop-color="#dce3f2"/><stop offset=".5" stop-color="#d5e0f2"/><stop offset=".501" stop-color="#d3dff2"/><stop offset=".706" stop-color="#d3dff2"/><stop offset=".74" stop-color="#d3dff2"/><stop offset=".741" stop-color="#fff3f2"/><stop offset=".835" stop-color="#fff3f2"/><stop offset=".85" stop-color="#fff3f2"/><stop offset=".851" stop-color="#d3dff2"/></linearGradient><g id="Page-1" fill="none" fill-rule="evenodd"><g id="079---Brightness"><path id="Shape" d="m43 35c0 9.9411255-8.0588745 18-18 18s-18-8.0588745-18-18c0-13.64 12-13.82 12-22h12c0 8.18 12 8.36 12 22z" fill="url(#linearGradient-1)" fill-rule="nonzero"/><path id="Shape" d="m31 13h-3c0 8.18 12 8.36 12 22 .0320738 9.3698368-7.1595677 17.1825746-16.5 17.925.5.041.994.075 1.5.075 4.7789501.0165465 9.3669407-1.8745627 12.746189-5.253811s5.2703575-7.9672389 5.253811-12.746189c0-13.64-12-13.82-12-22z" fill="#a4c2f7" fill-rule="nonzero"/><path id="Shape" d="m31 7v6h-12v-6c.0032948-1.10320187.8967981-1.9967052 2-2h8c1.1032019.0032948 1.9967052.89679813 2 2z" fill="#e8edfc" fill-rule="nonzero"/><path id="Shape" d="m29 5h-3c1.1032019.0032948 1.9967052.89679813 2 2v6h3v-6c-.0032948-1.10320187-.8967981-1.9967052-2-2z" fill="#cad9fc" fill-rule="nonzero"/><path id="Shape" d="m29 3v2h-8v-2c.0032948-1.10320187.8967981-1.9967052 2-2h4c1.1032019.0032948 1.9967052.89679813 2 2z" fill="#cad9fc" fill-rule="nonzero"/><path id="Shape" d="m31 9h-8" stroke="#428dff" stroke-linecap="round" stroke-linejoin="round" stroke-width="2"/><g fill-rule="nonzero"><path id="Shape" d="m25 53c.506 0 1-.034 1.5-.075-9.3404323-.7424254-16.53207379-8.5551632-16.5-17.925 0-13.64 12-13.82 12-22v-6c.0032948-1.10320187.8967981-1.9967052 2-2v-2c.0032948-1.10320187.8967981-1.9967052 2-2h-3c-1.1032019.0032948-1.9967052.89679813-2 2v2c-1.1032019.0032948-1.9967052.89679813-2 2v6c0 8.18-12 8.36-12 22-.01654647 4.7789501 1.87456274 9.3669407 5.253811 12.746189 3.3792483 3.3792483 7.9672389 5.2703575 12.746189 5.253811z" fill="#fff"/><path id="Shape" d="m7.843 26.81 1.778.916c-1.09559885 2.2666783-1.65047436 4.7566008-1.621 7.274h-2c-.02995138-2.8360723.60105041-5.6401443 1.843-8.19z" fill="#fff"/><path id="Shape" d="m7.432 32.022c-.55228473.0027614-1.00223852-.4427153-1.00499994-.995-.00276143-.5522847.44271521-1.0022385.99499994-1.005h.01c.55228475 0 1 .4477153 1 1s-.44771525 1-1 1z" fill="#428dff"/><path id="Shape" d="m27 0h-4c-1.6568542 0-3 1.34314575-3 3v1.184c-1.1943509.42225455-1.9947486 1.54921457-2 2.816v6c-.0267542 1.3098284-.4332041 2.5837188-1.17 3.667-.8365605 1.1496821-1.8127017 2.1909889-2.906 3.1-2.2 1.964-4.634 4.144-6.081 7.041-.12749261.2412473-.14976102.5244187-.06154543.7826292.08821558.2582104.27909245.4685624.52754543.5813708.48701186.2207144 1.06168968.024483 1.312-.448 1.258-2.521 3.394-4.468 5.648-6.476 1.2139015-1.0162913 2.2956627-2.1806964 3.22-3.466.7624651-1.1325152 1.2494384-2.4276861 1.422-3.782h2.089v10c0 .5522847.4477153 1 1 1s1-.4477153 1-1v-10h2v10c0 .5522847.4477153 1 1 1s1-.4477153 1-1v-10h2.055c.381 3.408 2.7 5.483 5.141 7.67 3.345 2.995 6.804 6.093 6.804 13.33 0 9.3888407-7.6111593 17-17 17s-17-7.6111593-17-17c0-.5522847-.44771525-1-1-1s-1 .4477153-1 1c0 10.4934102 8.5065898 19 19 19s19-8.5065898 19-19c0-8.132-4.142-11.84-7.47-14.819-2.53-2.267-4.53-4.057-4.53-7.181v-6c-.0052514-1.26678543-.8056491-2.39374545-2-2.816v-1.184c0-1.65685425-1.3431458-3-3-3zm-5 3c0-.55228475.4477153-1 1-1h4c.5522847 0 1 .44771525 1 1v1h-6zm8 5h-7c-.5522847 0-1 .44771525-1 1s.4477153 1 1 1h7v2h-10v-5c0-.55228475.4477153-1 1-1h8c.5522847 0 1 .44771525 1 1z" fill="#428dff"/><path id="Shape" d="m26 59v-2c0-.5522847-.4477153-1-1-1s-1 .4477153-1 1v2c0 .5522847.4477153 1 1 1s1-.4477153 1-1z" fill="#428dff"/><path id="Shape" d="m37 56.784c.3570824-.000366.6868739-.1911096.8652566-.5004437s.1782849-.6903138-.0002566-.9995563l-1-1.731c-.1773616-.3119508-.5082732-.5049532-.8671183-.5057421s-.6906021.1907567-.8693336.5019247c-.1787314.3111679-.1770325.694247.0044519 1.0038174l1 1.731c.1788068.3097028.5093863.5003484.867.5z" fill="#428dff"/><path id="Shape" d="m45.284 47.866c.47786.2716903 1.0854205.1067416 1.3602745-.3693057.2748541-.4760473.1139391-1.0846885-.3602745-1.3626943l-1.731-1c-.3095704-.1814844-.6926495-.1831833-1.0038174-.0044519-.311168.1787315-.5027136.5104885-.5019247.8693336s.1937913.6897567.5057421.8671183z" fill="#428dff"/><path id="Shape" d="m50 35c0-.5522847-.4477153-1-1-1h-2c-.5522847 0-1 .4477153-1 1s.4477153 1 1 1h2c.5522847 0 1-.4477153 1-1z" fill="#428dff"/><path id="Shape" d="m45.284 22.134-1.731 1c-.3119508.1773616-.5049532.5082732-.5057421.8671183s.1907567.6906021.5019247.8693336c.3111679.1787314.694247.1770325 1.0038174-.0044519l1.731-1c.4742136-.2780058.6351286-.886647.3602745-1.3626943-.274854-.4760473-.8824145-.640996-1.3602745-.3693057z" fill="#428dff"/><path id="Shape" d="m6.447 23.134-1.731-1c-.47785996-.2716903-1.08542045-.1067416-1.36027453.3693057s-.11393908 1.0846885.36027453 1.3626943l1.731 1c.47785996.2716903 1.08542045.1067416 1.36027453-.3693057s.11393908-1.0846885-.36027453-1.3626943z" fill="#428dff"/><path id="Shape" d="m1 34c-.55228475 0-1 .4477153-1 1s.44771525 1 1 1h2c.55228475 0 1-.4477153 1-1s-.44771525-1-1-1z" fill="#428dff"/><path id="Shape" d="m4.217 48c.17558875.0003718.34812995-.0458692.5-.134l1.731-1c.31195078-.1773616.50495322-.5082732.5057421-.8671183.00078889-.3588451-.19075673-.6906021-.50192468-.8693336-.31116795-.1787314-.694247-.1770325-1.00381742.0044519l-1.731 1c-.39194126.2263139-.58302085.6876562-.46588095 1.1248223s.51329289.7411578.96588095.7411777z" fill="#428dff"/><path id="Shape" d="m13 56.784c.3576137.0003484.6881932-.1902972.867-.5l1-1.731c.2716903-.47786.1067416-1.0854205-.3693057-1.3602745-.4760473-.2748541-1.0846885-.1139391-1.3626943.3602745l-1 1.731c-.1785415.3092425-.1786393.6902222-.0002566.9995563s.5081742.5000777.8652566.5004437z" fill="#428dff"/><path id="Shape" d="m24 29v-1c0-.5522847-.4477153-1-1-1s-1 .4477153-1 1v1c0 .5522847.4477153 1 1 1s1-.4477153 1-1z" fill="#428dff"/><path id="Shape" d="m28 29v-1c0-.5522847-.4477153-1-1-1s-1 .4477153-1 1v1c0 .5522847.4477153 1 1 1s1-.4477153 1-1z" fill="#428dff"/></g></g></g></svg>